G04 Layer_Physical_Order=1*
G04 Layer_Color=255*
%FSLAX45Y45*%
%MOMM*%
%TF.FileFunction,Copper,L1,Top,Signal*%
%TF.Part,Single*%
G01*
G75*
%TA.AperFunction,SMDPad,CuDef*%
%ADD10R,1.20000X1.40000*%
%ADD11R,1.40000X1.20000*%
G04:AMPARAMS|DCode=12|XSize=1.4mm|YSize=1.1mm|CornerRadius=0mm|HoleSize=0mm|Usage=FLASHONLY|Rotation=315.000|XOffset=0mm|YOffset=0mm|HoleType=Round|Shape=Rectangle|*
%AMROTATEDRECTD12*
4,1,4,-0.88388,0.10607,-0.10607,0.88388,0.88388,-0.10607,0.10607,-0.88388,-0.88388,0.10607,0.0*
%
%ADD12ROTATEDRECTD12*%

G04:AMPARAMS|DCode=13|XSize=1.4mm|YSize=1.1mm|CornerRadius=0mm|HoleSize=0mm|Usage=FLASHONLY|Rotation=45.000|XOffset=0mm|YOffset=0mm|HoleType=Round|Shape=Rectangle|*
%AMROTATEDRECTD13*
4,1,4,-0.10607,-0.88388,-0.88388,-0.10607,0.10607,0.88388,0.88388,0.10607,-0.10607,-0.88388,0.0*
%
%ADD13ROTATEDRECTD13*%

G04:AMPARAMS|DCode=14|XSize=1.55mm|YSize=0.55mm|CornerRadius=0mm|HoleSize=0mm|Usage=FLASHONLY|Rotation=225.000|XOffset=0mm|YOffset=0mm|HoleType=Round|Shape=Rectangle|*
%AMROTATEDRECTD14*
4,1,4,0.35355,0.74246,0.74246,0.35355,-0.35355,-0.74246,-0.74246,-0.35355,0.35355,0.74246,0.0*
%
%ADD14ROTATEDRECTD14*%

G04:AMPARAMS|DCode=15|XSize=1.55mm|YSize=0.55mm|CornerRadius=0mm|HoleSize=0mm|Usage=FLASHONLY|Rotation=135.000|XOffset=0mm|YOffset=0mm|HoleType=Round|Shape=Rectangle|*
%AMROTATEDRECTD15*
4,1,4,0.74246,-0.35355,0.35355,-0.74246,-0.74246,0.35355,-0.35355,0.74246,0.74246,-0.35355,0.0*
%
%ADD15ROTATEDRECTD15*%

%ADD16R,1.98120X0.55880*%
%TA.AperFunction,ConnectorPad*%
G04:AMPARAMS|DCode=17|XSize=1.4mm|YSize=1.1mm|CornerRadius=0mm|HoleSize=0mm|Usage=FLASHONLY|Rotation=45.000|XOffset=0mm|YOffset=0mm|HoleType=Round|Shape=Rectangle|*
%AMROTATEDRECTD17*
4,1,4,-0.10607,-0.88388,-0.88388,-0.10607,0.10607,0.88388,0.88388,0.10607,-0.10607,-0.88388,0.0*
%
%ADD17ROTATEDRECTD17*%

%TA.AperFunction,Conductor*%
%ADD18C,0.50800*%
%TA.AperFunction,ComponentPad*%
%ADD19C,2.00000*%
%ADD20R,2.00000X2.00000*%
%ADD21P,2.82843X4X270.0*%
%ADD22R,2.00000X2.00000*%
%ADD23P,2.82843X4X360.0*%
D10*
X4435002Y330000D02*
D03*
X4254998D02*
D03*
X1739998Y2065000D02*
D03*
X1920002D02*
D03*
X890102Y1066800D02*
D03*
X710098D02*
D03*
D11*
X225000Y2192503D02*
D03*
Y2372502D02*
D03*
X533400Y2195998D02*
D03*
Y2376002D02*
D03*
X2286000Y1929303D02*
D03*
Y2109302D02*
D03*
D12*
X2982265Y1953565D02*
D03*
X3088335Y2059635D02*
D03*
D13*
X2910535Y1229670D02*
D03*
X2804470Y1335735D02*
D03*
X2745435Y1077265D02*
D03*
X2639365Y1183335D02*
D03*
X3253435Y1547165D02*
D03*
X3147365Y1653235D02*
D03*
X3075635Y1382065D02*
D03*
X2969570Y1488135D02*
D03*
D14*
X4016456Y1317173D02*
D03*
X3959885Y1373739D02*
D03*
X3903320Y1430310D02*
D03*
X3846749Y1486875D02*
D03*
X3790183Y1543446D02*
D03*
X3733612Y1600012D02*
D03*
X3677046Y1656583D02*
D03*
X3620475Y1713149D02*
D03*
X3563910Y1769720D02*
D03*
X3507339Y1826285D02*
D03*
X3450773Y1882856D02*
D03*
X4263944Y2696027D02*
D03*
X4320515Y2639461D02*
D03*
X4377080Y2582890D02*
D03*
X4433651Y2526325D02*
D03*
X4490217Y2469754D02*
D03*
X4546788Y2413188D02*
D03*
X4603354Y2356617D02*
D03*
X4659925Y2300051D02*
D03*
X4716490Y2243480D02*
D03*
X4773061Y2186915D02*
D03*
X4829627Y2130344D02*
D03*
D15*
X3450773D02*
D03*
X3507339Y2186915D02*
D03*
X3563910Y2243480D02*
D03*
X3620475Y2300051D02*
D03*
X3677046Y2356617D02*
D03*
X3733612Y2413188D02*
D03*
X3790183Y2469754D02*
D03*
X3846749Y2526325D02*
D03*
X3903320Y2582890D02*
D03*
X3959885Y2639461D02*
D03*
X4016456Y2696027D02*
D03*
X4829627Y1882856D02*
D03*
X4773061Y1826285D02*
D03*
X4716490Y1769720D02*
D03*
X4659925Y1713149D02*
D03*
X4603354Y1656583D02*
D03*
X4546788Y1600012D02*
D03*
X4490217Y1543446D02*
D03*
X4433651Y1486875D02*
D03*
X4377080Y1430310D02*
D03*
X4320515Y1373739D02*
D03*
X4263944Y1317173D02*
D03*
D16*
X1376680Y2184400D02*
D03*
Y2057400D02*
D03*
Y1930400D02*
D03*
Y1803400D02*
D03*
X883920D02*
D03*
Y1930400D02*
D03*
Y2057400D02*
D03*
Y2184400D02*
D03*
D17*
X5265535Y2819470D02*
D03*
X5159470Y2925535D02*
D03*
D18*
X3700700Y322500D02*
X3987800Y609600D01*
X972900Y322500D02*
X3700700D01*
X685800Y609600D02*
X972900Y322500D01*
X4528700Y325000D02*
X4622800Y419100D01*
X4433402Y325000D02*
X4528700D01*
X5263300Y132500D02*
X5638800Y508000D01*
X4737100Y132500D02*
X5263300D01*
X4572000Y368300D02*
X4805300Y135000D01*
X906400D02*
X4805300D01*
X431800Y609600D02*
X906400Y135000D01*
X5638800Y1752600D02*
Y2466196D01*
X5294181Y2810819D02*
X5638800Y2466196D01*
X5294181Y2810819D02*
X5305000D01*
X4854827Y2947500D02*
X5127435D01*
X2283800Y2072500D02*
Y2161200D01*
X1977698Y2072500D02*
X2283800D01*
X1730198Y2320000D02*
X1977698Y2072500D01*
X1635000Y2320000D02*
X1730198D01*
X1499400Y2184400D02*
X1635000Y2320000D01*
X1376680Y2184400D02*
X1499400D01*
X2491400Y1450000D02*
X2982265Y1940865D01*
X600000Y1450000D02*
X2491400D01*
X1172500Y1302500D02*
X1345450Y1129550D01*
X1999500Y1302500D02*
X2171700Y1130300D01*
X710098Y1230798D02*
X781800Y1302500D01*
X1958000Y1090000D02*
X2044700Y1003300D01*
X1663700Y1090000D02*
X1958000D01*
X4433651Y2526325D02*
X4854827Y2947500D01*
X3162500Y2912500D02*
X4420000D01*
Y2736544D02*
Y2912500D01*
X4331040Y2647584D02*
X4420000Y2736544D01*
X1220000Y1632500D02*
X2394500D01*
X1132500Y1720000D02*
X1220000Y1632500D01*
X1132500Y1720000D02*
Y1842500D01*
X1044600Y1930400D02*
X1132500Y1842500D01*
X883920Y1930400D02*
X1044600D01*
X2394500Y1632500D02*
X2697500Y1935500D01*
X1115000Y2308800D02*
X1346200Y2540000D01*
X1115000Y2161600D02*
Y2308800D01*
Y2161600D02*
X1219200Y2057400D01*
X5346700Y1625600D02*
X5510600D01*
X5435600Y1550600D02*
X5510600Y1625600D01*
X5435600Y1231900D02*
Y1550600D01*
X5143576Y1231900D02*
X5181600D01*
X4662327Y1713149D02*
X5143576Y1231900D01*
X5384800Y609600D02*
Y725200D01*
X4927600Y1182400D02*
X5384800Y725200D01*
X4927600Y1182400D02*
Y1231900D01*
X620900Y1803400D02*
X883920D01*
X431800Y1614300D02*
X620900Y1803400D01*
X890102Y1066800D02*
X915000Y1041900D01*
Y634400D02*
Y1041900D01*
Y634400D02*
X939800Y609600D01*
X2822604Y907500D02*
X3552002Y1636898D01*
X1491700Y907500D02*
X2822604D01*
X1193800Y609600D02*
X1491700Y907500D01*
X2697500Y2447500D02*
X3162500Y2912500D01*
X2697500Y1935500D02*
Y2447500D01*
X2577500Y2069500D02*
Y2567500D01*
X2438400Y1930400D02*
X2577500Y2069500D01*
Y2567500D02*
X3040000Y3030000D01*
X4445000D01*
X4555000Y2920000D01*
Y2763223D02*
Y2920000D01*
X4374678Y2582890D02*
X4555000Y2763223D01*
X3552002Y1636898D02*
Y1642267D01*
X3618073Y1708343D01*
Y1713149D02*
X3620475D01*
X2825938Y800100D02*
X3608568Y1582730D01*
X1892300Y800100D02*
X2825938D01*
X1701800Y609600D02*
X1892300Y800100D01*
X3608568Y1582730D02*
Y1585697D01*
X3674643Y1651777D01*
Y1656583D02*
X3677046D01*
X2971800Y609600D02*
Y838200D01*
X3733612Y1600012D01*
X3225800Y609600D02*
Y979063D01*
X3790183Y1543446D01*
X3479800Y609600D02*
Y1119927D01*
X3846749Y1486875D01*
X3733800Y1260790D02*
X3903320Y1430310D01*
X3733800Y609600D02*
Y1260790D01*
X4263944Y1317173D02*
X4368800Y1212317D01*
Y863600D02*
Y1212317D01*
Y863600D02*
X4622800Y609600D01*
X4436054Y1486875D02*
X4660900Y1262029D01*
Y1079500D02*
Y1262029D01*
Y1079500D02*
X5130800Y609600D01*
X5511800Y1625600D02*
X5638800Y1752600D01*
X4659925Y1713149D02*
X4662327D01*
X4433651Y1486875D02*
X4436054D01*
X4377080Y1430310D02*
X4495800Y1311590D01*
Y990600D02*
Y1311590D01*
Y990600D02*
X4876800Y609600D01*
X4622800Y419100D02*
Y609600D01*
X5638800Y508000D02*
Y1752600D01*
X4773061Y1823883D02*
X4971344Y1625600D01*
X5346700D01*
X5295900Y2184400D02*
X5346700Y2133600D01*
X4883683Y2184400D02*
X5295900D01*
X4829627Y2130344D02*
X4883683Y2184400D01*
X5295900Y1828800D02*
X5321300Y1854200D01*
X4883683Y1828800D02*
X5295900D01*
X4829627Y1882856D02*
X4883683Y1828800D01*
X4784969Y2562469D02*
X4864100Y2641600D01*
X4784969Y2314367D02*
Y2562469D01*
X4839132Y2255388D02*
X5063769Y2480031D01*
X430703Y1930400D02*
X883920D01*
X215900Y2145203D02*
X430703Y1930400D01*
X508000Y2376002D02*
X533400D01*
X266700D02*
X508000D01*
X215900Y2325202D02*
X266700Y2376002D01*
X1600200Y2819400D02*
Y2844800D01*
X1460500Y2984500D02*
X1600200Y2844800D01*
X781456Y2984500D02*
X1460500D01*
X712399Y2915442D02*
X781456Y2984500D01*
X712399Y2580401D02*
Y2915442D01*
X1092200Y2692400D02*
Y2819400D01*
X595798Y2195998D02*
X1092200Y2692400D01*
X1346200Y2540000D02*
Y2819400D01*
X1376680Y2057400D02*
X1691559D01*
X646598D02*
X883920D01*
X1219200D02*
X1376680D01*
X710098Y1066800D02*
Y1230798D01*
X2671470Y1003300D02*
X2745435Y1077265D01*
X3634339Y1724690D02*
Y1727093D01*
X685800Y609600D02*
Y1042502D01*
X710098Y1066800D01*
X1447800Y609600D02*
X1460500D01*
X3341355Y1547165D02*
X3563910Y1769720D01*
X3253435Y1547165D02*
X3341355D01*
X3088335Y1382065D02*
X3253435Y1547165D01*
X3075635Y1382065D02*
X3088335D01*
X2923235Y1229670D02*
X3075635Y1382065D01*
X2910535Y1229670D02*
X2923235D01*
X2758135Y1077265D02*
X2910535Y1229670D01*
X2745435Y1077265D02*
X2758135D01*
X2652065Y1183335D02*
X2804470Y1335735D01*
X2956865Y1488135D01*
X2969570D01*
X3134670Y1653235D01*
X3147365D01*
X3254268Y1686357D02*
X3450773Y1882856D01*
X3147365Y1653235D02*
X3162300D01*
Y1686357D02*
X3254268D01*
X3502685Y1826285D02*
X3507339D01*
X3254268Y1686357D02*
X3362757D01*
X3502685Y1826285D01*
X4773061Y1823883D02*
Y1826285D01*
X4716490Y2243480D02*
Y2245883D01*
X4784969Y2314367D01*
X4773061Y2186915D02*
X4775464D01*
Y2191720D02*
X4839132Y2255388D01*
X2044700Y1003300D02*
X2671470D01*
X3507339Y2186915D02*
Y2189317D01*
X2834848Y2390348D02*
X3124200Y2679700D01*
X3403600D01*
X2834848Y2067352D02*
Y2390348D01*
Y2067352D02*
X2961335Y1940865D01*
X3438865Y2257796D02*
X3507339Y2189317D01*
X3438865Y2257796D02*
Y2310628D01*
X3236697Y2512797D02*
X3438865Y2310628D01*
X3327684Y2253432D02*
X3450773Y2130344D01*
X3269432Y2253432D02*
X3327684D01*
X3101035Y2085035D02*
X3269432Y2253432D01*
X4326235Y2645181D02*
Y2647584D01*
X4331040D01*
X4374678Y2582890D02*
X4377080D01*
X2286000Y1929303D02*
X2287097Y1930400D01*
X2298700D01*
X2355200D02*
X2438400D01*
X3162300Y1653235D02*
Y1686357D01*
X508000Y2376002D02*
X712399Y2580401D01*
X4775464Y2186915D02*
Y2191720D01*
X4864100Y2641600D02*
X4927600D01*
X4374678Y2578085D02*
Y2582890D01*
X1376680Y1930400D02*
X2287097D01*
X3618073Y1708343D02*
Y1713149D01*
X508000Y2195998D02*
X595798D01*
X508000D02*
X646598Y2057400D01*
X3674643Y1651777D02*
Y1656583D01*
X2171700Y1130300D02*
X2586330D01*
X2639365Y1183335D01*
X4241800Y312500D02*
Y609600D01*
X2961335Y1940865D02*
X2982265D01*
X3378200Y2654300D02*
X3403600Y2679700D01*
X3416300Y2692400D01*
X431800Y1281800D02*
Y1591600D01*
Y609600D02*
Y1281800D01*
Y1591600D02*
Y1614300D01*
X430000Y1280000D02*
X431800Y1281800D01*
X600000Y1450000D01*
X65000Y1958400D02*
X431800Y1591600D01*
X65000Y1958400D02*
Y2485000D01*
X672500Y3092500D01*
X1723087D01*
X1854200Y2819400D02*
Y2961387D01*
X1723087Y3092500D02*
X1854200Y2961387D01*
X781800Y1302500D02*
X1172500D01*
X1999500D01*
X1600200Y2844800D02*
X2283800Y2161200D01*
D19*
X5384800Y609600D02*
D03*
X5130800D02*
D03*
X4876800D02*
D03*
X5176500Y1177500D02*
D03*
X5430500D02*
D03*
X1646500Y1082500D02*
D03*
X3236697Y2512797D02*
D03*
X685800Y609600D02*
D03*
X939800D02*
D03*
X1193800D02*
D03*
X1447800D02*
D03*
X1701800D02*
D03*
X1955800D02*
D03*
X2209800D02*
D03*
X2463800D02*
D03*
X2717800D02*
D03*
X2971800D02*
D03*
X3225800D02*
D03*
X3479800D02*
D03*
X3733800D02*
D03*
X3987800D02*
D03*
X4241800D02*
D03*
X5346700Y1879600D02*
D03*
Y1625600D02*
D03*
X1854200Y2819400D02*
D03*
X1600200D02*
D03*
X1346200D02*
D03*
X5094503Y2512797D02*
D03*
D20*
X4622800Y609600D02*
D03*
X4922500Y1177500D02*
D03*
X1392500Y1082500D02*
D03*
X431800Y609600D02*
D03*
X1092200Y2819400D02*
D03*
D21*
X3416300Y2692400D02*
D03*
D22*
X5346700Y2133600D02*
D03*
D23*
X4914900Y2692400D02*
D03*
%TF.MD5,2E2CBACBB9F4DB9314BF21FFF26AFD15*%
M02*
